<svg width="641" height="513" viewBox="0 0 641 513" fill="none" xmlns="http://www.w3.org/2000/svg">
    <g clip-path="url(#clip0_109_50)">
    <path d="M323.719 85.2952L226.919 163.695C210.819 176.695 207.719 200.095 219.919 216.795C232.819 234.595 257.919 238.095 275.219 224.595L374.519 147.395C381.519 141.995 391.519 143.195 397.019 150.195C402.519 157.195 401.219 167.195 394.219 172.695L373.319 188.895L550.519 352.095H592.319C618.819 352.095 640.319 330.595 640.319 304.095V176.095C640.319 149.595 618.819 128.095 592.319 128.095H516.319H512.319H511.619L507.719 125.595L435.119 79.0952C419.819 69.2952 401.919 64.0952 383.719 64.0952C361.919 64.0952 340.719 71.5952 323.719 85.2952ZM346.519 209.695L294.819 249.895C263.319 274.495 217.619 268.095 194.019 235.695C171.819 205.195 177.419 162.595 206.719 138.895L289.919 71.5952C278.319 66.6952 265.819 64.1952 253.119 64.1952C234.319 64.0952 216.019 69.6952 200.319 80.0952L128.319 128.095H48.3193C21.8193 128.095 0.319336 149.595 0.319336 176.095V304.095C0.319336 330.595 21.8193 352.095 48.3193 352.095H156.519L247.919 435.495C267.519 453.395 297.819 451.995 315.719 432.395C321.219 426.295 324.919 419.195 326.819 411.795L343.819 427.395C363.319 445.295 393.719 443.995 411.619 424.495C416.119 419.595 419.419 413.895 421.519 407.995C440.919 420.995 467.319 418.295 483.619 400.495C501.519 380.995 500.219 350.595 480.719 332.695L346.519 209.695Z" fill="#673DE5"/>
    </g>
    <defs>
    <clipPath id="clip0_109_50">
    <rect width="640" height="512" fill="white" transform="translate(0.319336 0.0952148)"/>
    </clipPath>
    </defs>
</svg>    