<svg width="512" height="448" viewBox="0 0 512 448" fill="none" xmlns="http://www.w3.org/2000/svg">
    <path d="M64 32C64 14.3 49.7 0 32 0C14.3 0 0 14.3 0 32V368C0 412.2 35.8 448 80 448H480C497.7 448 512 433.7 512 416C512 398.3 497.7 384 480 384H80C71.2 384 64 376.8 64 368V32ZM470.6 118.6C483.1 106.1 483.1 85.8 470.6 73.3C458.1 60.8 437.8 60.8 425.3 73.3L320 178.7L262.6 121.3C250.1 108.8 229.8 108.8 217.3 121.3L105.3 233.3C92.8 245.8 92.8 266.1 105.3 278.6C117.8 291.1 138.1 291.1 150.6 278.6L240 189.3L297.4 246.7C309.9 259.2 330.2 259.2 342.7 246.7L470.7 118.7L470.6 118.6Z" fill="#673DE5"/>
</svg>
    