<svg width="576" height="512" viewBox="0 0 576 512" fill="none" xmlns="http://www.w3.org/2000/svg">
    <g clip-path="url(#clip0_109_53)">
    <path d="M311.997 24V34.5C318.397 35.7 324.597 37.2 330.197 38.7C342.997 42.1 350.597 55.3 347.197 68.1C343.797 80.9 330.597 88.5 317.797 85.1C306.897 82.2 296.697 80.2 287.597 80.1C280.297 80 272.897 81.8 268.197 84.5C266.097 85.8 265.097 86.9 264.697 87.5C264.397 88 263.997 88.7 263.997 90.3C263.997 90.6 263.997 90.8 263.997 90.9C264.197 91.1 264.897 92.1 267.297 93.5C273.097 97 281.697 99.7 294.697 103.6L295.597 103.9C306.697 107.2 321.497 111.7 333.497 119.2C347.197 127.8 359.597 142.1 359.897 164.1C360.197 186.6 348.497 203 333.197 212.6C326.497 216.7 319.297 219.6 311.897 221.4V232C311.897 245.3 301.197 256 287.897 256C274.597 256 263.897 245.3 263.897 232V220.6C254.397 218.3 245.697 215.3 238.297 212.8C236.197 212.1 234.197 211.4 232.297 210.8C219.697 206.6 212.897 193 217.097 180.4C221.297 167.8 234.897 161 247.497 165.2C250.097 166.1 252.497 166.9 254.797 167.7C268.397 172.3 278.197 175.6 288.697 176C296.697 176.3 303.797 174.4 307.897 171.9C309.797 170.7 310.697 169.7 311.097 169C311.497 168.4 311.997 167.2 311.897 164.9V164.7C311.897 163.7 311.897 162.6 307.897 160.1C302.197 156.5 293.597 153.7 280.797 149.8L278.897 149.2C268.097 146 253.897 141.7 242.497 134.8C228.997 126.7 215.997 112.8 215.897 90.7C215.797 67.8 228.797 52.1 243.597 43.3C249.997 39.5 256.897 36.9 263.797 35.1L263.997 24C263.997 10.7 274.697 0 287.997 0C301.297 0 311.997 10.7 311.997 24ZM568.197 336.3C581.297 354.1 577.497 379.1 559.697 392.2L433.097 485.5C409.697 502.7 381.497 512 352.397 512H191.997H31.9971C14.2971 512 -0.00292969 497.7 -0.00292969 480V416C-0.00292969 398.3 14.2971 384 31.9971 384H68.7971L113.697 348C136.397 329.8 164.597 320 193.697 320H271.997H287.997H351.997C369.697 320 383.997 334.3 383.997 352C383.997 369.7 369.697 384 351.997 384H287.997H271.997C263.197 384 255.997 391.2 255.997 400C255.997 408.8 263.197 416 271.997 416H392.597L512.297 327.8C530.097 314.7 555.097 318.5 568.197 336.3ZM193.597 384H192.697C192.997 384 193.297 384 193.597 384Z" fill="#673DE5"/>
    </g>
    <defs>
    <clipPath id="clip0_109_53">
    <rect width="576" height="512" fill="white" transform="translate(-0.00292969)"/>
    </clipPath>
    </defs>
</svg>    