<svg width="577" height="513" viewBox="0 0 577 513" fill="none" xmlns="http://www.w3.org/2000/svg">
    <g clip-path="url(#clip0_109_40)">
    <path d="M405.138 94.5435V95.2435C399.838 94.8435 394.538 94.5435 389.138 94.5435H261.138C244.638 94.5435 228.638 96.6435 213.338 100.543C213.238 98.5435 213.138 96.5435 213.138 94.5435C213.138 41.5435 256.138 -1.45654 309.138 -1.45654C362.138 -1.45654 405.138 41.5435 405.138 94.5435ZM389.138 126.543C392.638 126.543 396.138 126.643 399.538 126.843C403.738 127.143 407.938 127.543 412.138 128.143C429.738 107.643 455.938 94.5435 485.138 94.5435H496.638C507.038 94.5435 514.638 104.343 512.138 114.443L498.338 169.643C514.138 184.443 527.038 202.443 535.838 222.543H549.138C566.838 222.543 581.138 236.843 581.138 254.543V350.543C581.138 368.243 566.838 382.543 549.138 382.543H517.138C508.038 394.643 497.238 405.443 485.138 414.543V478.543C485.138 496.243 470.838 510.543 453.138 510.543H421.138C403.438 510.543 389.138 496.243 389.138 478.543V446.543H261.138V478.543C261.138 496.243 246.838 510.543 229.138 510.543H197.138C179.438 510.543 165.138 496.243 165.138 478.543V414.543C130.238 388.343 106.438 348.243 101.938 302.543H73.1384C35.5384 302.543 5.13843 272.143 5.13843 234.543C5.13843 196.943 35.5384 166.543 73.1384 166.543H77.1384C90.4384 166.543 101.138 177.243 101.138 190.543C101.138 203.843 90.4384 214.543 77.1384 214.543H73.1384C62.1384 214.543 53.1384 223.543 53.1384 234.543C53.1384 245.543 62.1384 254.543 73.1384 254.543H104.338C116.438 194.743 162.038 147.043 220.638 131.743C233.538 128.343 247.138 126.543 261.138 126.543H389.138ZM453.138 262.543C453.138 256.178 450.61 250.074 446.109 245.573C441.608 241.072 435.504 238.543 429.138 238.543C422.773 238.543 416.669 241.072 412.168 245.573C407.667 250.074 405.138 256.178 405.138 262.543C405.138 268.909 407.667 275.013 412.168 279.514C416.669 284.015 422.773 286.543 429.138 286.543C435.504 286.543 441.608 284.015 446.109 279.514C450.61 275.013 453.138 268.909 453.138 262.543Z" fill="#673DE5"/>
    </g>
    <defs>
    <clipPath id="clip0_109_40">
    <rect width="576" height="512" fill="white" transform="translate(0.319336 0.149902)"/>
    </clipPath>
    </defs>
</svg>
    