<svg width="240" height="148" viewBox="0 0 240 148" fill="none" xmlns="http://www.w3.org/2000/svg">
    <g clip-path="url(#clip0_99_36)">
    <path opacity="0.8" d="M120 4L240 44C231.113 70.0823 215.212 93.2126 194.044 110.853C172.876 128.493 147.257 139.962 120 144C92.7426 139.962 67.1242 128.493 45.9559 110.853C24.7877 93.2126 8.88745 70.0823 0 44L120 4Z" fill="#673DE5" fill-opacity="0.8"/>
    <mask id="mask0_99_36" style="mask-type:luminance" maskUnits="userSpaceOnUse" x="0" y="4" width="240" height="140">
    <path d="M120 4L240 44C231.113 70.0823 215.212 93.2126 194.044 110.853C172.876 128.493 147.257 139.962 120 144C92.7426 139.962 67.1242 128.493 45.9559 110.853C24.7877 93.2126 8.88745 70.0823 0 44L120 4Z" fill="white"/>
    </mask>
    <g mask="url(#mask0_99_36)">
    <g opacity="0.6">
    <path d="M0 104C80 50.6667 160 30.6667 240 44" stroke="#AAAAAA" stroke-opacity="0.666667" stroke-width="2"/>
    <path d="M0 84C80 30.6667 160 10.6667 240 24" stroke="#AAAAAA" stroke-opacity="0.666667" stroke-width="2"/>
    </g>
    </g>
    <path d="M30.5449 71V45.2305H41.4961C44.25 45.2305 46.248 45.4648 47.4902 45.9336C48.7441 46.3906 49.7461 47.2109 50.4961 48.3945C51.2461 49.5781 51.6211 50.9316 51.6211 52.4551C51.6211 54.3887 51.0527 55.9883 49.916 57.2539C48.7793 58.5078 47.0801 59.2988 44.8184 59.627C45.9434 60.2832 46.8691 61.0039 47.5957 61.7891C48.334 62.5742 49.3242 63.9688 50.5664 65.9727L53.7129 71H47.4902L43.7285 65.3926C42.3926 63.3887 41.4785 62.1289 40.9863 61.6133C40.4941 61.0859 39.9727 60.7285 39.4219 60.541C38.8711 60.3418 37.998 60.2422 36.8027 60.2422H35.748V71H30.5449ZM35.748 56.1289H39.5977C42.0938 56.1289 43.6523 56.0234 44.2734 55.8125C44.8945 55.6016 45.3809 55.2383 45.7324 54.7227C46.084 54.207 46.2598 53.5625 46.2598 52.7891C46.2598 51.9219 46.0254 51.2246 45.5566 50.6973C45.0996 50.1582 44.4492 49.8184 43.6055 49.6777C43.1836 49.6191 41.918 49.5898 39.8086 49.5898H35.748V56.1289ZM67.3184 65.0586L72.2402 65.8848C71.6074 67.6895 70.6055 69.0664 69.2344 70.0156C67.875 70.9531 66.1699 71.4219 64.1191 71.4219C60.873 71.4219 58.4707 70.3613 56.9121 68.2402C55.6816 66.541 55.0664 64.3965 55.0664 61.8066C55.0664 58.7129 55.875 56.293 57.4922 54.5469C59.1094 52.7891 61.1543 51.9102 63.627 51.9102C66.4043 51.9102 68.5957 52.8301 70.2012 54.6699C71.8066 56.498 72.5742 59.3047 72.5039 63.0898H60.1289C60.1641 64.5547 60.5625 65.6973 61.3242 66.5176C62.0859 67.3262 63.0352 67.7305 64.1719 67.7305C64.9453 67.7305 65.5957 67.5195 66.123 67.0977C66.6504 66.6758 67.0488 65.9961 67.3184 65.0586ZM67.5996 60.0664C67.5645 58.6367 67.1953 57.5527 66.4922 56.8145C65.7891 56.0645 64.9336 55.6895 63.9258 55.6895C62.8477 55.6895 61.957 56.082 61.2539 56.8672C60.5508 57.6523 60.2051 58.7188 60.2168 60.0664H67.5996ZM85.1074 52.332V56.2695H81.7324V63.793C81.7324 65.3164 81.7617 66.207 81.8203 66.4648C81.8906 66.7109 82.0371 66.916 82.2598 67.0801C82.4941 67.2441 82.7754 67.3262 83.1035 67.3262C83.5605 67.3262 84.2227 67.168 85.0898 66.8516L85.5117 70.6836C84.3633 71.1758 83.0625 71.4219 81.6094 71.4219C80.7188 71.4219 79.916 71.2754 79.2012 70.9824C78.4863 70.6777 77.959 70.291 77.6191 69.8223C77.291 69.3418 77.0625 68.6973 76.9336 67.8887C76.8281 67.3145 76.7754 66.1543 76.7754 64.4082V56.2695H74.5078V52.332H76.7754V48.623L81.7324 45.7402V52.332H85.1074ZM88.5352 49.8008V45.2305H93.4746V49.8008H88.5352ZM88.5352 71V52.332H93.4746V71H88.5352ZM103.283 71H98.3438V52.332H102.932V54.9863C103.717 53.7324 104.42 52.9062 105.041 52.5078C105.674 52.1094 106.389 51.9102 107.186 51.9102C108.311 51.9102 109.395 52.2207 110.438 52.8418L108.908 57.1484C108.076 56.6094 107.303 56.3398 106.588 56.3398C105.896 56.3398 105.311 56.5332 104.83 56.9199C104.35 57.2949 103.969 57.9805 103.688 58.9766C103.418 59.9727 103.283 62.0586 103.283 65.2344V71Z" fill="#00B4D8" fill-opacity="0.8"/>
    <path d="M111.299 62.6152L116.361 62.123C116.666 63.8223 117.281 65.0703 118.207 65.8672C119.145 66.6641 120.404 67.0625 121.986 67.0625C123.662 67.0625 124.922 66.7109 125.766 66.0078C126.621 65.293 127.049 64.4609 127.049 63.5117C127.049 62.9023 126.867 62.3867 126.504 61.9648C126.152 61.5312 125.531 61.1562 124.641 60.8398C124.031 60.6289 122.643 60.2539 120.475 59.7148C117.686 59.0234 115.729 58.1738 114.604 57.166C113.021 55.748 112.23 54.0195 112.23 51.9805C112.23 50.668 112.6 49.4434 113.338 48.3066C114.088 47.1582 115.16 46.2852 116.555 45.6875C117.961 45.0898 119.654 44.791 121.635 44.791C124.869 44.791 127.301 45.5 128.93 46.918C130.57 48.3359 131.432 50.2285 131.514 52.5957L126.311 52.8242C126.088 51.5 125.607 50.5508 124.869 49.9766C124.143 49.3906 123.047 49.0977 121.582 49.0977C120.07 49.0977 118.887 49.4082 118.031 50.0293C117.48 50.4277 117.205 50.9609 117.205 51.6289C117.205 52.2383 117.463 52.7598 117.979 53.1934C118.635 53.7441 120.229 54.3184 122.76 54.916C125.291 55.5137 127.16 56.1348 128.367 56.7793C129.586 57.4121 130.535 58.2852 131.215 59.3984C131.906 60.5 132.252 61.8652 132.252 63.4941C132.252 64.9707 131.842 66.3535 131.021 67.6426C130.201 68.9316 129.041 69.8926 127.541 70.5254C126.041 71.1465 124.172 71.457 121.934 71.457C118.676 71.457 116.174 70.707 114.428 69.207C112.682 67.6953 111.639 65.498 111.299 62.6152ZM136.225 52.332H140.777V54.8809C142.406 52.9004 144.346 51.9102 146.596 51.9102C147.791 51.9102 148.828 52.1562 149.707 52.6484C150.586 53.1406 151.307 53.8848 151.869 54.8809C152.689 53.8848 153.574 53.1406 154.523 52.6484C155.473 52.1562 156.486 51.9102 157.564 51.9102C158.936 51.9102 160.096 52.1914 161.045 52.7539C161.994 53.3047 162.703 54.1191 163.172 55.1973C163.512 55.9941 163.682 57.2832 163.682 59.0645V71H158.742V60.3301C158.742 58.4785 158.572 57.2832 158.232 56.7441C157.775 56.041 157.072 55.6895 156.123 55.6895C155.432 55.6895 154.781 55.9004 154.172 56.3223C153.562 56.7441 153.123 57.3652 152.854 58.1855C152.584 58.9941 152.449 60.2773 152.449 62.0352V71H147.51V60.7695C147.51 58.9531 147.422 57.7812 147.246 57.2539C147.07 56.7266 146.795 56.334 146.42 56.0762C146.057 55.8184 145.559 55.6895 144.926 55.6895C144.164 55.6895 143.479 55.8945 142.869 56.3047C142.26 56.7148 141.82 57.3066 141.551 58.0801C141.293 58.8535 141.164 60.1367 141.164 61.9297V71H136.225V52.332ZM172.312 58.0273L167.83 57.2188C168.334 55.4141 169.201 54.0781 170.432 53.2109C171.662 52.3438 173.49 51.9102 175.916 51.9102C178.119 51.9102 179.76 52.1738 180.838 52.7012C181.916 53.2168 182.672 53.8789 183.105 54.6875C183.551 55.4844 183.773 56.9551 183.773 59.0996L183.721 64.8652C183.721 66.5059 183.797 67.7188 183.949 68.5039C184.113 69.2773 184.412 70.1094 184.846 71H179.959C179.83 70.6719 179.672 70.1855 179.484 69.541C179.402 69.248 179.344 69.0547 179.309 68.9609C178.465 69.7812 177.562 70.3965 176.602 70.8066C175.641 71.2168 174.615 71.4219 173.525 71.4219C171.604 71.4219 170.086 70.9004 168.973 69.8574C167.871 68.8145 167.32 67.4961 167.32 65.9023C167.32 64.8477 167.572 63.9102 168.076 63.0898C168.58 62.2578 169.283 61.625 170.186 61.1914C171.1 60.7461 172.412 60.3594 174.123 60.0312C176.432 59.5977 178.031 59.1934 178.922 58.8184V58.3262C178.922 57.377 178.688 56.7031 178.219 56.3047C177.75 55.8945 176.865 55.6895 175.564 55.6895C174.686 55.6895 174 55.8652 173.508 56.2168C173.016 56.5566 172.617 57.1602 172.312 58.0273ZM178.922 62.0352C178.289 62.2461 177.287 62.498 175.916 62.791C174.545 63.084 173.648 63.3711 173.227 63.6523C172.582 64.1094 172.26 64.6895 172.26 65.3926C172.26 66.084 172.518 66.6816 173.033 67.1855C173.549 67.6895 174.205 67.9414 175.002 67.9414C175.893 67.9414 176.742 67.6484 177.551 67.0625C178.148 66.6172 178.541 66.0723 178.729 65.4277C178.857 65.0059 178.922 64.2031 178.922 63.0195V62.0352ZM193.389 71H188.449V52.332H193.037V54.9863C193.822 53.7324 194.525 52.9062 195.146 52.5078C195.779 52.1094 196.494 51.9102 197.291 51.9102C198.416 51.9102 199.5 52.2207 200.543 52.8418L199.014 57.1484C198.182 56.6094 197.408 56.3398 196.693 56.3398C196.002 56.3398 195.416 56.5332 194.936 56.9199C194.455 57.2949 194.074 57.9805 193.793 58.9766C193.523 59.9727 193.389 62.0586 193.389 65.2344V71ZM211.248 52.332V56.2695H207.873V63.793C207.873 65.3164 207.902 66.207 207.961 66.4648C208.031 66.7109 208.178 66.916 208.4 67.0801C208.635 67.2441 208.916 67.3262 209.244 67.3262C209.701 67.3262 210.363 67.168 211.23 66.8516L211.652 70.6836C210.504 71.1758 209.203 71.4219 207.75 71.4219C206.859 71.4219 206.057 71.2754 205.342 70.9824C204.627 70.6777 204.1 70.291 203.76 69.8223C203.432 69.3418 203.203 68.6973 203.074 67.8887C202.969 67.3145 202.916 66.1543 202.916 64.4082V56.2695H200.648V52.332H202.916V48.623L207.873 45.7402V52.332H211.248Z" fill="white"/>
    </g>
    <defs>
    <clipPath id="clip0_99_36">
    <rect width="240" height="148" fill="white"/>
    </clipPath>
    </defs>
    </svg>
    